<svg width="31" height="32" viewBox="0 0 31 32" fill="none" xmlns="http://www.w3.org/2000/svg">
<g clip-path="url(#clip0_1_297)">
<path d="M31 16C31 24.5625 24.0625 31.5 15.5 31.5C13.9 31.5 12.3625 31.2563 10.9125 30.8062C11.5438 29.775 12.4875 28.0875 12.8375 26.7437C13.025 26.0187 13.8 23.0562 13.8 23.0562C14.3063 24.0187 15.7812 24.8375 17.35 24.8375C22.025 24.8375 25.3937 20.5375 25.3937 15.1938C25.3937 10.075 21.2125 6.24375 15.8375 6.24375C9.15 6.24375 5.59375 10.7312 5.59375 15.625C5.59375 17.9 6.80625 20.7313 8.7375 21.6313C9.03125 21.7688 9.1875 21.7062 9.25625 21.425C9.30625 21.2125 9.56875 20.1562 9.6875 19.6688C9.725 19.5125 9.70625 19.375 9.58125 19.225C8.95 18.4438 8.4375 17.0187 8.4375 15.6875C8.4375 12.2688 11.025 8.9625 15.4375 8.9625C19.2437 8.9625 21.9125 11.5562 21.9125 15.2688C21.9125 19.4625 19.7938 22.3687 17.0375 22.3687C15.5188 22.3687 14.375 21.1125 14.7437 19.5688C15.1812 17.725 16.025 15.7375 16.025 14.4062C16.025 13.2188 15.3875 12.225 14.0625 12.225C12.5063 12.225 11.2563 13.8313 11.2563 15.9875C11.2563 17.3625 11.7188 18.2875 11.7188 18.2875C11.7188 18.2875 10.1875 24.775 9.90625 25.9875C9.59375 27.325 9.71875 29.2125 9.85 30.4375C4.0875 28.1812 0 22.5688 0 16C0 7.4375 6.9375 0.5 15.5 0.5C24.0625 0.5 31 7.4375 31 16Z" fill="white"/>
</g>
<defs>
<clipPath id="clip0_1_297">
<rect width="31" height="32" fill="white"/>
</clipPath>
</defs>
</svg>
