<svg width="32" height="32" viewBox="0 0 32 32" fill="none" xmlns="http://www.w3.org/2000/svg">
<path d="M28.7106 9.48201C28.7309 9.76626 28.7309 10.0506 28.7309 10.3348C28.7309 19.0048 22.132 28.9947 10.0711 28.9947C6.35531 28.9947 2.90356 27.9185 0 26.0506C0.527937 26.1114 1.0355 26.1318 1.58375 26.1318C4.64969 26.1318 7.47206 25.0963 9.72587 23.3298C6.84262 23.2688 4.42637 21.3805 3.59387 18.7815C4 18.8424 4.40606 18.883 4.8325 18.883C5.42131 18.883 6.01019 18.8018 6.55837 18.6597C3.55331 18.0505 1.29944 15.4109 1.29944 12.2231V12.1419C2.1725 12.6293 3.18781 12.9338 4.26388 12.9744C2.49738 11.7967 1.34006 9.78657 1.34006 7.51245C1.34006 6.2942 1.66488 5.17745 2.23344 4.20282C5.46187 8.18251 10.3147 10.7814 15.7563 11.0658C15.6548 10.5784 15.5938 10.0709 15.5938 9.56326C15.5938 5.94901 18.5177 3.00488 22.1522 3.00488C24.0405 3.00488 25.7461 3.79676 26.9441 5.07595C28.4263 4.7917 29.8476 4.24345 31.1065 3.4922C30.6191 5.01507 29.5836 6.29426 28.2232 7.10638C29.5431 6.96432 30.8222 6.59876 31.9999 6.0912C31.1066 7.39063 29.9898 8.54795 28.7106 9.48201Z" fill="white"/>
</svg>
